<svg width="24" height="24" viewBox="0 0 24 24" fill="none"
    xmlns="http://www.w3.org/2000/svg">
    <path fill-rule="evenodd" clip-rule="evenodd" d="M11.998 2C12.5503 2 12.998 2.44772 12.998 3V10.2676L19.2916 6.63397C19.7699 6.35783 20.3815 6.52171 20.6576 7C20.9338 7.47829 20.7699 8.08988 20.2916 8.36603L13.9977 11.9998L20.2923 15.634C20.7706 15.9101 20.9345 16.5217 20.6583 17C20.3822 17.4783 19.7706 17.6422 19.2923 17.366L12.998 13.732V21C12.998 21.5523 12.5503 22 11.998 22C11.4457 22 10.998 21.5523 10.998 21V13.7317L4.70311 17.366C4.22482 17.6422 3.61323 17.4783 3.33708 17C3.06094 16.5217 3.22482 15.9101 3.70311 15.634L9.9977 11.9998L3.70381 8.36603C3.22552 8.08988 3.06164 7.47829 3.33778 7C3.61393 6.52171 4.22552 6.35783 4.70381 6.63397L10.998 10.2679V3C10.998 2.44772 11.4457 2 11.998 2Z" fill="currentColor"/>
</svg>
