<svg width="24" height="24" viewBox="0 0 24 24" fill="none"
    xmlns="http://www.w3.org/2000/svg">
    <path fill-rule="evenodd" clip-rule="evenodd" d="M4 6C3.44771 6 3 6.44771 3 7V17C3 17.5523 3.44771 18 4 18H20C20.5523 18 21 17.5523 21 17V7C21 6.44771 20.5523 6 20 6H4ZM1 7C1 5.34315 2.34315 4 4 4H20C21.6569 4 23 5.34315 23 7V17C23 18.6569 21.6569 20 20 20H4C2.34315 20 1 18.6569 1 17V7ZM4 8C4 7.44772 4.44772 7 5 7H6C6.55228 7 7 7.44772 7 8C7 8.55228 6.55228 9 6 9H5C4.44772 9 4 8.55228 4 8ZM12 11C11.4477 11 11 11.4477 11 12C11 12.5523 11.4477 13 12 13C12.5523 13 13 12.5523 13 12C13 11.4477 12.5523 11 12 11ZM9 12C9 10.3431 10.3431 9 12 9C13.6569 9 15 10.3431 15 12C15 13.6569 13.6569 15 12 15C10.3431 15 9 13.6569 9 12ZM17 16C17 15.4477 17.4477 15 18 15H19C19.5523 15 20 15.4477 20 16C20 16.5523 19.5523 17 19 17H18C17.4477 17 17 16.5523 17 16Z" fill="currentColor"/>
</svg>
