<svg width="24" height="24" viewBox="0 0 24 24" fill="none"
    xmlns="http://www.w3.org/2000/svg">
    <path fill-rule="evenodd" clip-rule="evenodd" d="M1 3C1 2.44772 1.44772 2 2 2H2.72931C3.95141 2 4.99438 2.88354 5.19529 4.089L5.19529 4.089L5.34713 5H19.4302C21.0023 5 22.1843 6.43388 21.8843 7.97712L21.8843 7.97717L20.7963 13.5726L20.7963 13.5726C20.5221 14.9822 19.2875 16 17.8514 16H7.69425C6.22775 16 4.97617 14.9398 4.73508 13.4932L3.51361 6.1644L4.5 6L3.51361 6.1644L3.22251 4.4178C3.22251 4.4178 3.22251 4.4178 3.22251 4.4178C3.18232 4.1767 2.97373 4 2.72931 4H2C1.44772 4 1 3.55228 1 3ZM5.68046 7L6.70786 13.1644C6.78823 13.6466 7.20541 14 7.69425 14H17.8514C18.3301 14 18.7417 13.6608 18.8331 13.1908L19.9211 7.59548C19.9811 7.28682 19.7447 7 19.4302 7H5.68046ZM6 19C6 17.8954 6.89545 17 8 17C9.10455 17 10 17.8954 10 19C10 20.1046 9.10455 21 8 21C6.89545 21 6 20.1046 6 19ZM15 19C15 17.8954 15.8954 17 17 17C18.1046 17 19 17.8954 19 19C19 20.1046 18.1046 21 17 21C15.8954 21 15 20.1046 15 19Z" fill="currentColor"/>
</svg>
