<svg width="24" height="24" viewBox="0 0 24 24" fill="none"
    xmlns="http://www.w3.org/2000/svg">
    <path fill-rule="evenodd" clip-rule="evenodd" d="M4.43257 5.35691C6.31014 3.79161 8.93531 3 12 3C15.0647 3 17.6899 3.79161 19.5674 5.35691C21.4669 6.94042 22.5 9.23348 22.5 12C22.5 14.7665 21.4669 17.0596 19.5674 18.6431C17.6899 20.2084 15.0647 21 12 21C10.3807 21 8.55742 20.8505 6.91575 20.1378C6.63664 20.2938 6.25233 20.4834 5.79595 20.6417C4.84474 20.9717 3.45902 21.2047 2.07191 20.5476C1.79975 20.4187 1.60017 20.174 1.52863 19.8815C1.45708 19.5889 1.52119 19.2797 1.70314 19.0397C2.39153 18.1318 2.60847 17.4277 2.66855 16.9773C2.72633 16.5442 2.64553 16.296 2.63606 16.2688C2.63565 16.2678 2.63502 16.2663 2.63415 16.2642C2.63224 16.2597 2.63024 16.255 2.6266 16.2465C2.62337 16.2389 2.61884 16.2283 2.61403 16.2168L2.61361 16.2158C2.53705 16.0322 2.26607 15.3691 2.01259 14.5779C1.76934 13.8187 1.5 12.8165 1.5 12C1.5 9.23347 2.53316 6.94042 4.43257 5.35691ZM5.71326 6.89309C4.31406 8.05958 3.5 9.76653 3.5 12C3.5 12.4778 3.67777 13.2204 3.91722 13.9677C4.14621 14.6824 4.39326 15.2871 4.45932 15.4455C4.46476 15.4585 4.46519 15.4595 4.46578 15.4608C4.46649 15.4623 4.46744 15.4644 4.47754 15.4884C4.48663 15.51 4.49945 15.5411 4.5129 15.5778L4.51296 15.5779C4.67958 16.0323 4.94725 17.2657 4.10319 18.9634C4.45854 18.9471 4.80998 18.8668 5.14048 18.7522C5.4812 18.634 5.77091 18.4885 5.97492 18.3723C6.07604 18.3147 6.15371 18.2657 6.20345 18.233C6.22825 18.2167 6.24592 18.2046 6.25587 18.1976C6.25914 18.1954 6.26157 18.1937 6.26313 18.1925C6.26395 18.192 6.26454 18.1915 6.26489 18.1913C6.57276 17.9674 6.98123 17.9376 7.3184 18.1148C8.64951 18.8146 10.2949 19 12 19C14.7409 19 16.8657 18.2916 18.2868 17.1069C19.6859 15.9404 20.5 14.2335 20.5 12C20.5 9.76652 19.6859 8.05958 18.2868 6.89309C16.8657 5.70839 14.7409 5 12 5C9.25913 5 7.1343 5.70839 5.71326 6.89309ZM6.26294 18.1927L6.26286 18.1928L6.26245 18.1931C6.26261 18.193 6.26277 18.1928 6.26294 18.1927Z" fill="currentColor"/>
</svg>
