<svg width="24" height="24" viewBox="0 0 24 24" fill="none"
    xmlns="http://www.w3.org/2000/svg">
    <path fill-rule="evenodd" clip-rule="evenodd" d="M9 4C4.58173 4 1 7.58173 1 12C1 16.4183 4.58173 20 9 20H17C20.3137 20 23 17.3137 23 14C23 10.6863 20.3137 8 17 8C16.7286 8 16.4609 8.01809 16.1982 8.05323C16.0519 8.07279 15.9289 7.99786 15.8834 7.92139C14.491 5.57581 11.9301 4 9 4ZM9 6C5.68629 6 3 8.68629 3 12C3 15.3137 5.68629 18 9 18H17C19.2091 18 21 16.2091 21 14C21 11.7909 19.2091 10 17 10C16.8176 10 16.6385 10.0122 16.4634 10.0356C15.5815 10.1535 14.6479 9.75792 14.1638 8.9425C13.1167 7.17871 11.1955 6 9 6Z" fill="currentColor"/>
</svg>
