<svg width="24" height="24" viewBox="0 0 24 24" fill="none"
    xmlns="http://www.w3.org/2000/svg">
    <path d="M16.8777 16.5816C15.8573 17.3979 14.4288 18.0102 13.0002 18.0102C9.73488 18.0102 7.48998 15.5612 7.48998 12.2959C7.48998 9.03058 9.73488 6.78568 13.0002 6.78568C14.4288 6.78568 15.8573 7.19384 16.8777 8.21425L17.49 8.8265L20.7553 5.76527L19.939 5.15303C18.1022 3.52037 15.6532 2.49997 13.0002 2.49997C7.2859 2.49997 3.00018 6.78568 3.00018 12.5C3.00018 18.2143 7.2859 22.5 13.0002 22.5C15.6532 22.5 18.1022 21.4796 19.939 19.8469L20.7553 19.2347L17.49 15.9694L16.8777 16.5816Z" fill="#17313B"/>
    <path d="M12.7961 15.7652C14.5995 15.7652 16.0614 14.3033 16.0614 12.4999C16.0614 10.6965 14.5995 9.23462 12.7961 9.23462C10.9927 9.23462 9.53081 10.6965 9.53081 12.4999C9.53081 14.3033 10.9927 15.7652 12.7961 15.7652Z" fill="#EF4335"/>
</svg>
