<svg width="24" height="24" viewBox="0 0 24 24" fill="none"
    xmlns="http://www.w3.org/2000/svg">
    <path fill-rule="evenodd" clip-rule="evenodd" d="M3 7C3 4.79087 4.79087 3 7 3H17C19.2092 3 21 4.79088 21 7V17C21 19.2092 19.2092 21 17 21H7C4.79088 21 3 19.2092 3 17V7ZM7 5C5.89543 5 5 5.89543 5 7V17C5 18.1046 5.89542 19 7 19H17C18.1046 19 19 18.1046 19 17V7C19 5.89542 18.1046 5 17 5H7ZM10.7071 8.79289C11.0976 9.18341 11.0976 9.81658 10.7071 10.2071L8.91422 12L10.7071 13.7929C11.0976 14.1834 11.0976 14.8166 10.7071 15.2071C10.3166 15.5976 9.68341 15.5976 9.29289 15.2071L7.50003 13.4142C6.71895 12.6332 6.71894 11.3668 7.5 10.5858C7.50001 10.5858 7.50002 10.5858 7.50003 10.5858L9.29289 8.7929C9.68341 8.40237 10.3166 8.40237 10.7071 8.79289ZM13.2929 8.79289C13.6834 8.40237 14.3166 8.40237 14.7071 8.79289L16.5 10.5858C17.281 11.3668 17.281 12.6332 16.5 13.4142L14.7071 15.2071C14.3166 15.5976 13.6834 15.5976 13.2929 15.2071C12.9024 14.8166 12.9024 14.1834 13.2929 13.7929L15.0858 12L13.2929 10.2071C12.9024 9.81658 12.9024 9.18342 13.2929 8.79289Z" fill="currentColor"/>
</svg>
