<svg width="24" height="24" viewBox="0 0 24 24" fill="none"
    xmlns="http://www.w3.org/2000/svg">
    <path fill-rule="evenodd" clip-rule="evenodd" d="M12 19.3485C4.25266 14.8397 3.32976 10.1798 4.34544 7.64722C4.88699 6.29689 6.00312 5.37274 7.26606 5.09114C8.50415 4.81509 9.97388 5.1376 11.2879 6.47041C11.4758 6.66103 11.7323 6.76835 12 6.76835C12.2677 6.76835 12.5242 6.66103 12.7121 6.47041C14.0261 5.1376 15.4958 4.81509 16.7339 5.09114C17.9968 5.37274 19.113 6.29689 19.6545 7.64722C20.6702 10.1798 19.7473 14.8397 12 19.3485ZM12 4.42534C10.3834 3.14203 8.52833 2.76058 6.83081 3.13908C4.90275 3.56898 3.26802 4.9607 2.48916 6.90276C0.885005 10.9027 2.98315 16.5925 11.5111 21.3723C11.8148 21.5426 12.1852 21.5426 12.4889 21.3723C21.0168 16.5925 23.115 10.9027 21.5108 6.90276C20.7319 4.9607 19.0972 3.56898 17.1692 3.13908C15.4716 2.76058 13.6166 3.14203 12 4.42534ZM10.5 9C10.8448 9 11.1653 9.17762 11.348 9.47L13.075 12.2333L13.7 11.4C13.8889 11.1482 14.1852 11 14.5 11H16C16.5523 11 17 11.4477 17 12C17 12.5523 16.5523 13 16 13H15L13.8 14.6C13.6022 14.8638 13.287 15.0131 12.9576 14.9991C12.6281 14.9851 12.3268 14.8096 12.152 14.53L10.5 11.8868L10.098 12.53C9.91526 12.8224 9.59479 13 9.25 13H8C7.44771 13 7 12.5523 7 12C7 11.4477 7.44771 11 8 11H8.69575L9.652 9.47C9.83474 9.17762 10.1552 9 10.5 9Z" fill="currentColor"/>
</svg>
