<svg width="25" height="24" viewBox="0 0 25 24" fill="none"
    xmlns="http://www.w3.org/2000/svg">
    <g id="instagram">
        <g id="Vector">
            <path d="M12.667 4.21173C15.2035 4.21173 15.504 4.22123 16.5059 4.267C17.1081 4.27427 17.7047 4.38499 18.2694 4.59432C18.6821 4.74662 19.0554 4.9895 19.3619 5.30509C19.6775 5.61156 19.9204 5.98488 20.0727 6.39759C20.282 6.96235 20.3927 7.55888 20.4 8.16114C20.4458 9.16295 20.4553 9.4635 20.4553 12C20.4553 14.5365 20.4458 14.837 20.4 15.8389C20.3927 16.4411 20.282 17.0377 20.0727 17.6024C19.9146 18.0122 19.6725 18.3844 19.3619 18.6949C19.0514 19.0055 18.6792 19.2476 18.2694 19.4057C17.7047 19.615 17.1081 19.7257 16.5059 19.733C15.504 19.7788 15.2035 19.7883 12.667 19.7883C10.1305 19.7883 9.82994 19.7788 8.82813 19.733C8.22558 19.7258 7.62875 19.6151 7.06372 19.4057C6.65132 19.2533 6.27831 19.0104 5.97208 18.6949C5.65649 18.3884 5.41361 18.0151 5.26131 17.6024C5.05198 17.0377 4.94126 16.4411 4.93399 15.8389C4.88822 14.837 4.87872 14.5365 4.87872 12C4.87872 9.4635 4.88822 9.16295 4.93399 8.16114C4.94126 7.55888 5.05198 6.96235 5.26131 6.39759C5.41361 5.98488 5.65649 5.61156 5.97208 5.30509C6.27855 4.9895 6.65187 4.74662 7.06458 4.59432C7.62934 4.38499 8.22587 4.27427 8.82813 4.267C9.82994 4.22123 10.1305 4.21173 12.667 4.21173ZM12.667 2.5C10.0873 2.5 9.76344 2.51123 8.7504 2.557C7.96234 2.57272 7.18266 2.72194 6.44449 2.99832C5.81029 3.2371 5.23585 3.61141 4.76126 4.09514C4.27795 4.56956 3.90394 5.14369 3.66531 5.7775C3.38923 6.51572 3.2403 7.2954 3.22485 8.08341C3.17735 9.09645 3.16699 9.42032 3.16699 12C3.16699 14.5797 3.17822 14.9035 3.22399 15.9166C3.23971 16.7046 3.38893 17.4843 3.66531 18.2225C3.90409 18.8567 4.2784 19.4311 4.76213 19.9057C5.23655 20.389 5.81068 20.763 6.44449 21.0017C7.18271 21.2778 7.96239 21.4267 8.7504 21.4421C9.76344 21.4896 10.0873 21.5 12.667 21.5C15.2467 21.5 15.5705 21.4888 16.5836 21.443C17.3716 21.4273 18.1513 21.2781 18.8895 21.0017C19.5208 20.7576 20.0941 20.3843 20.5727 19.9057C21.0513 19.4271 21.4246 18.8538 21.6687 18.2225C21.9448 17.4843 22.0937 16.7046 22.1091 15.9166C22.1566 14.9035 22.167 14.5797 22.167 12C22.167 9.42032 22.1558 9.09645 22.11 8.08341C22.0943 7.29535 21.9451 6.51567 21.6687 5.7775C21.4299 5.1433 21.0556 4.56886 20.5719 4.09427C20.0974 3.61096 19.5233 3.23695 18.8895 2.99832C18.1513 2.72224 17.3716 2.57331 16.5836 2.55786C15.5705 2.51036 15.2467 2.5 12.667 2.5ZM12.667 7.12132C11.7021 7.12132 10.7588 7.40745 9.95654 7.94352C9.15424 8.4796 8.52893 9.24155 8.15968 10.133C7.79042 11.0245 7.69381 12.0054 7.88205 12.9518C8.0703 13.8982 8.53495 14.7675 9.21724 15.4497C9.89954 16.132 10.7688 16.5967 11.7152 16.7849C12.6616 16.9732 13.6425 16.8766 14.534 16.5073C15.4255 16.1381 16.1874 15.5127 16.7235 14.7105C17.2596 13.9082 17.5457 12.9649 17.5457 12C17.5457 10.7061 17.0317 9.46518 16.1167 8.55025C15.2018 7.63532 13.9609 7.12132 12.667 7.12132ZM12.667 15.167C12.0406 15.167 11.4283 14.9812 10.9075 14.6332C10.3867 14.2852 9.98081 13.7906 9.74111 13.2119C9.50141 12.6333 9.43869 11.9965 9.56089 11.3822C9.68309 10.7678 9.98471 10.2035 10.4276 9.76063C10.8705 9.31772 11.4348 9.0161 12.0492 8.8939C12.6635 8.7717 13.3003 8.83442 13.8789 9.07412C14.4576 9.31382 14.9522 9.71973 15.3002 10.2405C15.6482 10.7613 15.834 11.3736 15.834 12C15.834 12.8399 15.5003 13.6455 14.9064 14.2394C14.3125 14.8333 13.5069 15.167 12.667 15.167ZM17.7383 5.78873C17.5128 5.78873 17.2924 5.85559 17.1049 5.98085C16.9175 6.10612 16.7713 6.28416 16.6851 6.49247C16.5988 6.70078 16.5762 6.92999 16.6202 7.15113C16.6642 7.37227 16.7727 7.5754 16.9322 7.73483C17.0916 7.89426 17.2947 8.00284 17.5159 8.04682C17.737 8.09081 17.9662 8.06823 18.1745 7.98195C18.3828 7.89567 18.5609 7.74955 18.6861 7.56208C18.8114 7.37461 18.8783 7.1542 18.8783 6.92873C18.8783 6.62638 18.7582 6.33642 18.5444 6.12263C18.3306 5.90883 18.0406 5.78873 17.7383 5.78873Z" fill="url(#paint0_radial_1797_42142)"/>
            <path d="M12.667 4.21173C15.2035 4.21173 15.504 4.22123 16.5059 4.267C17.1081 4.27427 17.7047 4.38499 18.2694 4.59432C18.6821 4.74662 19.0554 4.9895 19.3619 5.30509C19.6775 5.61156 19.9204 5.98488 20.0727 6.39759C20.282 6.96235 20.3927 7.55888 20.4 8.16114C20.4458 9.16295 20.4553 9.4635 20.4553 12C20.4553 14.5365 20.4458 14.837 20.4 15.8389C20.3927 16.4411 20.282 17.0377 20.0727 17.6024C19.9146 18.0122 19.6725 18.3844 19.3619 18.6949C19.0514 19.0055 18.6792 19.2476 18.2694 19.4057C17.7047 19.615 17.1081 19.7257 16.5059 19.733C15.504 19.7788 15.2035 19.7883 12.667 19.7883C10.1305 19.7883 9.82994 19.7788 8.82813 19.733C8.22558 19.7258 7.62875 19.6151 7.06372 19.4057C6.65132 19.2533 6.27831 19.0104 5.97208 18.6949C5.65649 18.3884 5.41361 18.0151 5.26131 17.6024C5.05198 17.0377 4.94126 16.4411 4.93399 15.8389C4.88822 14.837 4.87872 14.5365 4.87872 12C4.87872 9.4635 4.88822 9.16295 4.93399 8.16114C4.94126 7.55888 5.05198 6.96235 5.26131 6.39759C5.41361 5.98488 5.65649 5.61156 5.97208 5.30509C6.27855 4.9895 6.65187 4.74662 7.06458 4.59432C7.62934 4.38499 8.22587 4.27427 8.82813 4.267C9.82994 4.22123 10.1305 4.21173 12.667 4.21173ZM12.667 2.5C10.0873 2.5 9.76344 2.51123 8.7504 2.557C7.96234 2.57272 7.18266 2.72194 6.44449 2.99832C5.81029 3.2371 5.23585 3.61141 4.76126 4.09514C4.27795 4.56956 3.90394 5.14369 3.66531 5.7775C3.38923 6.51572 3.2403 7.2954 3.22485 8.08341C3.17735 9.09645 3.16699 9.42032 3.16699 12C3.16699 14.5797 3.17822 14.9035 3.22399 15.9166C3.23971 16.7046 3.38893 17.4843 3.66531 18.2225C3.90409 18.8567 4.2784 19.4311 4.76213 19.9057C5.23655 20.389 5.81068 20.763 6.44449 21.0017C7.18271 21.2778 7.96239 21.4267 8.7504 21.4421C9.76344 21.4896 10.0873 21.5 12.667 21.5C15.2467 21.5 15.5705 21.4888 16.5836 21.443C17.3716 21.4273 18.1513 21.2781 18.8895 21.0017C19.5208 20.7576 20.0941 20.3843 20.5727 19.9057C21.0513 19.4271 21.4246 18.8538 21.6687 18.2225C21.9448 17.4843 22.0937 16.7046 22.1091 15.9166C22.1566 14.9035 22.167 14.5797 22.167 12C22.167 9.42032 22.1558 9.09645 22.11 8.08341C22.0943 7.29535 21.9451 6.51567 21.6687 5.7775C21.4299 5.1433 21.0556 4.56886 20.5719 4.09427C20.0974 3.61096 19.5233 3.23695 18.8895 2.99832C18.1513 2.72224 17.3716 2.57331 16.5836 2.55786C15.5705 2.51036 15.2467 2.5 12.667 2.5ZM12.667 7.12132C11.7021 7.12132 10.7588 7.40745 9.95654 7.94352C9.15424 8.4796 8.52893 9.24155 8.15968 10.133C7.79042 11.0245 7.69381 12.0054 7.88205 12.9518C8.0703 13.8982 8.53495 14.7675 9.21724 15.4497C9.89954 16.132 10.7688 16.5967 11.7152 16.7849C12.6616 16.9732 13.6425 16.8766 14.534 16.5073C15.4255 16.1381 16.1874 15.5127 16.7235 14.7105C17.2596 13.9082 17.5457 12.9649 17.5457 12C17.5457 10.7061 17.0317 9.46518 16.1167 8.55025C15.2018 7.63532 13.9609 7.12132 12.667 7.12132ZM12.667 15.167C12.0406 15.167 11.4283 14.9812 10.9075 14.6332C10.3867 14.2852 9.98081 13.7906 9.74111 13.2119C9.50141 12.6333 9.43869 11.9965 9.56089 11.3822C9.68309 10.7678 9.98471 10.2035 10.4276 9.76063C10.8705 9.31772 11.4348 9.0161 12.0492 8.8939C12.6635 8.7717 13.3003 8.83442 13.8789 9.07412C14.4576 9.31382 14.9522 9.71973 15.3002 10.2405C15.6482 10.7613 15.834 11.3736 15.834 12C15.834 12.8399 15.5003 13.6455 14.9064 14.2394C14.3125 14.8333 13.5069 15.167 12.667 15.167ZM17.7383 5.78873C17.5128 5.78873 17.2924 5.85559 17.1049 5.98085C16.9175 6.10612 16.7713 6.28416 16.6851 6.49247C16.5988 6.70078 16.5762 6.92999 16.6202 7.15113C16.6642 7.37227 16.7727 7.5754 16.9322 7.73483C17.0916 7.89426 17.2947 8.00284 17.5159 8.04682C17.737 8.09081 17.9662 8.06823 18.1745 7.98195C18.3828 7.89567 18.5609 7.74955 18.6861 7.56208C18.8114 7.37461 18.8783 7.1542 18.8783 6.92873C18.8783 6.62638 18.7582 6.33642 18.5444 6.12263C18.3306 5.90883 18.0406 5.78873 17.7383 5.78873Z" fill="url(#paint1_radial_1797_42142)"/>
        </g>
    </g>
    <defs>
        <radialGradient id="paint0_radial_1797_42142" cx="0" cy="0" r="1" gradientUnits="userSpaceOnUse" gradientTransform="translate(8.21389 22.9634) rotate(-90) scale(18.8304 17.5138)">
            <stop stop-color="#FFDD55"/>
            <stop offset="0.1" stop-color="#FFDD55"/>
            <stop offset="0.5" stop-color="#FF543E"/>
            <stop offset="1" stop-color="#C837AB"/>
        </radialGradient>
        <radialGradient id="paint1_radial_1797_42142" cx="0" cy="0" r="1" gradientUnits="userSpaceOnUse" gradientTransform="translate(-0.0156083 3.86873) rotate(78.6806) scale(8.41727 34.6963)">
            <stop stop-color="#3771C8"/>
            <stop offset="0.128" stop-color="#3771C8"/>
            <stop offset="1" stop-color="#6600FF" stop-opacity="0"/>
        </radialGradient>
    </defs>
</svg>
