<svg width="24" height="24" viewBox="0 0 24 24" fill="none"
    xmlns="http://www.w3.org/2000/svg">
    <path fill-rule="evenodd" clip-rule="evenodd" d="M4 10C4 5.58173 7.58172 2 12 2C16.4183 2 20 5.58173 20 10C20 12.9107 18.4449 15.4573 16.125 16.8557C16.105 16.8678 16.0855 16.8795 16.0669 16.8905C16.0353 16.9092 16.0158 16.9312 16.0063 16.9466C16.0021 16.9535 16.0005 16.9577 16 16.9596V19C16 21.2092 14.2092 23 12 23C9.79081 23 8 21.2092 8 19V16.9596C7.99949 16.9577 7.99792 16.9534 7.99368 16.9465C7.98424 16.9312 7.96475 16.9092 7.93321 16.8905C7.93318 16.8905 7.93316 16.8905 7.93314 16.8905C7.91416 16.8793 7.89521 16.868 7.8763 16.8565C7.87625 16.8565 7.8762 16.8565 7.87616 16.8564C5.55561 15.4581 4 12.9112 4 10ZM8.00022 16.9607C8.0002 16.9607 8.00012 16.9604 8.00006 16.9598C8.0002 16.9603 8.00023 16.9606 8.00022 16.9607ZM12 4C8.68629 4 6 6.68629 6 10C6 12.1814 7.16348 14.092 8.90852 15.1435L8.90979 15.1442C8.92318 15.1523 8.93661 15.1604 8.95008 15.1683L8.95116 15.1689C9.54344 15.5192 10 16.1702 10 16.9584V17H14V16.9584C14 16.1702 14.4567 15.5191 15.0489 15.1689L15.0495 15.1686C15.0636 15.1602 15.0768 15.1524 15.0893 15.1448L15.0915 15.1435C16.8365 14.092 18 12.1814 18 10C18 6.68629 15.3137 4 12 4ZM14 19H10C10 20.1046 10.8954 21 12 21C13.1046 21 14 20.1046 14 19Z" fill="currentColor"/>
</svg>
