<svg width="25" height="24" viewBox="0 0 25 24" fill="none"
    xmlns="http://www.w3.org/2000/svg">
    <g id="linkedin">
        <path id="Vector" d="M19.983 3H4.68301C4.32497 3 3.98159 3.14223 3.72842 3.39541C3.47524 3.64858 3.33301 3.99196 3.33301 4.35V19.65C3.33301 20.008 3.47524 20.3514 3.72842 20.6046C3.98159 20.8578 4.32497 21 4.68301 21H19.983C20.341 21 20.6844 20.8578 20.9376 20.6046C21.1908 20.3514 21.333 20.008 21.333 19.65V4.35C21.333 3.99196 21.1908 3.64858 20.9376 3.39541C20.6844 3.14223 20.341 3 19.983 3ZM8.73301 18.3H6.03301V10.2H8.73301V18.3ZM7.38301 8.625C7.07357 8.61616 6.77361 8.51632 6.52059 8.33797C6.26757 8.15962 6.07271 7.91066 5.96038 7.6222C5.84804 7.33374 5.8232 7.01857 5.88896 6.71607C5.95471 6.41358 6.10816 6.13716 6.33011 5.92138C6.55207 5.70559 6.83269 5.55999 7.13692 5.50278C7.44115 5.44556 7.75549 5.47927 8.04067 5.59969C8.32585 5.7201 8.56923 5.92189 8.74038 6.17983C8.91154 6.43778 9.00288 6.74044 9.00301 7.05C8.9959 7.47331 8.82151 7.8766 8.51796 8.17173C8.2144 8.46685 7.80636 8.62982 7.38301 8.625ZM18.633 18.3H15.933V14.034C15.933 12.756 15.393 12.297 14.691 12.297C14.4852 12.3107 14.2841 12.3649 14.0993 12.4566C13.9145 12.5482 13.7496 12.6755 13.6141 12.831C13.4787 12.9866 13.3752 13.1674 13.3098 13.363C13.2444 13.5586 13.2183 13.7652 13.233 13.971C13.2285 14.0129 13.2285 14.0551 13.233 14.097V18.3H10.533V10.2H13.143V11.37C13.4063 10.9695 13.768 10.6433 14.1935 10.4227C14.619 10.2021 15.094 10.0944 15.573 10.11C16.968 10.11 18.597 10.884 18.597 13.404L18.633 18.3Z" fill="#0A66C2"/>
    </g>
</svg>
