<svg width="20" height="20" viewBox="0 0 20 20" fill="none" xmlns="http://www.w3.org/2000/svg">
<path fill-rule="evenodd" clip-rule="evenodd" d="M1.66666 13.3334C1.66666 13.7937 2.03975 14.1667 2.49999 14.1667L17.5 14.1667C17.9602 14.1667 18.3333 13.7937 18.3333 13.3334C18.3333 12.8732 17.9602 12.5001 17.5 12.5001L2.49999 12.5001C2.03975 12.5001 1.66666 12.8732 1.66666 13.3334Z" fill="#FAFAFA"/>
<path fill-rule="evenodd" clip-rule="evenodd" d="M1.66666 6.66667C1.66666 7.1269 2.03975 7.5 2.49999 7.5L17.5 7.5C17.9602 7.5 18.3333 7.1269 18.3333 6.66667C18.3333 6.20643 17.9602 5.83333 17.5 5.83333L2.49999 5.83333C2.03975 5.83333 1.66666 6.20643 1.66666 6.66667Z" fill="#FAFAFA"/>
</svg>
