<svg width="20" height="20" viewBox="0 0 20 20" fill="none" xmlns="http://www.w3.org/2000/svg">
<path fill-rule="evenodd" clip-rule="evenodd" d="M6.00018 -0.00390625C6.55246 -0.00390625 7.00018 0.443809 7.00018 0.996094V2H9.0002V0.996094C9.0002 0.443809 9.44792 -0.00390625 10.0002 -0.00390625C10.5525 -0.00390625 11.0002 0.443809 11.0002 0.996094V2H13V1C13 0.447719 13.4477 3.8147e-06 14 3.8147e-06C14.5523 3.8147e-06 15 0.447719 15 1V2H16C17.1046 2 18 2.89545 18 4V5H19C19.5523 5 20 5.44772 20 6C20 6.55229 19.5523 7 19 7H18V9H19C19.5523 9 20 9.44772 20 10C20 10.5523 19.5523 11 19 11H18V13H19C19.5523 13 20 13.4477 20 14C20 14.5523 19.5523 15 19 15H18V16C18 17.1046 17.1046 18 16 18H15V19C15 19.5523 14.5523 20 14 20C13.4477 20 13 19.5523 13 19V18H11V19C11 19.5523 10.5523 20 10 20C9.44771 20 9 19.5523 9 19V18H7V19C7 19.5523 6.55228 20 6 20C5.44772 20 5 19.5523 5 19V18H4C2.89545 18 2 17.1046 2 16V15H1C0.447715 15 0 14.5523 0 14C0 13.4477 0.447715 13 1 13H2V11H1C0.447715 11 0 10.5523 0 10C0 9.44772 0.447715 9 1 9H2V7H1C0.447715 7 0 6.55229 0 6C0 5.44772 0.447715 5 1 5H2V4C2 2.89544 2.89544 2 4 2H5.00018V0.996094C5.00018 0.443809 5.4479 -0.00390625 6.00018 -0.00390625ZM4 4V16H16V4H4ZM10 7.99902C8.89479 7.99902 7.99878 8.89498 7.99878 10.0003C7.99878 11.1055 8.89478 12.0015 10 12.0015C11.1053 12.0015 12.0013 11.1055 12.0013 10.0003C12.0013 8.895 11.1053 7.99902 10 7.99902ZM5.99878 10.0003C5.99878 7.79042 7.79021 5.99902 10 5.99902C12.2099 5.99902 14.0013 7.79041 14.0013 10.0003C14.0013 12.2101 12.2099 14.0015 10 14.0015C7.79022 14.0015 5.99878 12.2101 5.99878 10.0003Z" fill="currentColor"/>
</svg>
