<svg width="48" height="48" viewBox="0 0 48 48" fill="none"
    xmlns="http://www.w3.org/2000/svg">
    <path d="M12.9915 10C8.02562 10 4 14.0294 4 19C4 23.9706 8.02562 28 12.9915 28C14.2322 28 15.4142 27.7484 16.4894 27.2936C16.2751 27.6856 16.0423 28.0556 15.7935 28.4076C14.2234 30.6294 11.9018 32.3234 8.88598 34.3358C7.96778 34.9486 7.71968 36.1904 8.3318 37.1094C8.94392 38.0284 10.1845 38.2768 11.1027 37.6642C14.0812 35.6766 17.0046 33.6206 19.0561 30.7174C21.1648 27.7334 22.242 24.0328 21.9828 18.9451C21.9532 13.9998 17.939 10 12.9915 10Z" fill="currentColor"/>
    <path d="M34.9699 10C30.0041 10 25.9785 14.0294 25.9785 19C25.9785 23.9706 30.0041 28 34.9699 28C36.2107 28 37.3927 27.7484 38.4679 27.2936C38.2537 27.6856 38.0207 28.0556 37.7721 28.4076C36.2019 30.6294 33.8803 32.3234 30.8645 34.3358C29.9463 34.9486 29.6981 36.1904 30.3103 37.1094C30.9225 38.0284 32.1629 38.2768 33.0811 37.6642C36.0597 35.6766 38.9831 33.6206 41.0345 30.7174C43.1433 27.7334 44.2205 24.0328 43.9613 18.9451C43.9317 13.9998 39.9175 10 34.9699 10Z" fill="currentColor"/>
</svg>
