<svg width="24" height="24" viewBox="0 0 24 24" fill="none"
    xmlns="http://www.w3.org/2000/svg">
    <path fill-rule="evenodd" clip-rule="evenodd" d="M14 5C13.4477 5 13 4.55228 13 4C13 3.44772 13.4477 3 14 3H20C20.5523 3 21 3.44772 21 4V10C21 10.5523 20.5523 11 20 11C19.4477 11 19 10.5523 19 10V6.41421L11.7071 13.7071C11.3166 14.0976 10.6834 14.0976 10.2929 13.7071C9.90237 13.3166 9.90237 12.6834 10.2929 12.2929L17.5858 5H14Z" fill="currentColor"/>
    <path d="M10 6C10 5.44772 9.55229 5 9 5L8.7587 5C7.95373 4.99999 7.28937 4.99998 6.74817 5.04419C6.18608 5.09012 5.66938 5.18868 5.18404 5.43597C4.43139 5.81947 3.81947 6.43138 3.43598 7.18404C3.18868 7.66937 3.09012 8.18608 3.04419 8.74817C2.99998 9.28937 2.99999 9.95373 3 10.7587V15.2413C2.99999 16.0463 2.99998 16.7106 3.04419 17.2518C3.09012 17.8139 3.18869 18.3306 3.43596 18.816L3.43597 18.816C3.81947 19.5687 4.43139 20.1805 5.18402 20.564C5.66936 20.8113 6.18607 20.9099 6.74817 20.9558C7.28936 21 7.95372 21 8.75868 21H13.2413C14.0463 21 14.7107 21 15.2518 20.9558C15.8139 20.9099 16.3306 20.8113 16.816 20.564L16.816 20.564C17.5686 20.1805 18.1805 19.5687 18.564 18.816L18.564 18.816C18.8113 18.3306 18.9099 17.8139 18.9558 17.2518C19 16.7106 19 16.0463 19 15.2413V15C19 14.4477 18.5523 14 18 14C17.4477 14 17 14.4477 17 15V15.2C17 16.0566 16.9992 16.6389 16.9624 17.089C16.9266 17.5274 16.8617 17.7516 16.782 17.908L16.782 17.908C16.5903 18.2844 16.2844 18.5903 15.908 18.782L15.908 18.782C15.7516 18.8617 15.5274 18.9266 15.089 18.9624C14.6389 18.9992 14.0566 19 13.2 19H8.8C7.94342 19 7.36113 18.9992 6.91104 18.9624C6.47263 18.9266 6.24838 18.8617 6.09199 18.782C5.71567 18.5903 5.40974 18.2843 5.21801 17.908L5.21799 17.908C5.13829 17.7516 5.07337 17.5273 5.03755 17.089C5.00078 16.6389 5 16.0566 5 15.2V10.8C5 9.94342 5.00078 9.36113 5.03755 8.91104C5.07337 8.47262 5.1383 8.24842 5.21799 8.09202L5.21799 8.09202C5.40974 7.71569 5.71569 7.40973 6.09202 7.21799L6.09202 7.21799C6.24842 7.1383 6.47262 7.07337 6.91104 7.03755C7.36113 7.00078 7.94342 7 8.8 7H9C9.55229 7 10 6.55228 10 6Z" fill="currentColor"/>
</svg>
