<svg width="24" height="24" viewBox="0 0 24 24" fill="none"
    xmlns="http://www.w3.org/2000/svg">
    <path d="M10.6503 1.8468C11.1928 0.717202 12.8067 0.717205 13.3492 1.8468L15.6106 6.55545C15.6823 6.70488 15.826 6.80939 15.9935 6.83133L21.1976 7.51292C22.4425 7.67597 22.9487 9.20803 22.031 10.0735L18.2255 13.6628C18.1039 13.7775 18.0497 13.9446 18.0799 14.107L19.0355 19.2343C19.2663 20.4729 17.9533 21.4111 16.8526 20.8176L12.2371 18.3286C12.0892 18.2488 11.9104 18.2488 11.7624 18.3286L7.14685 20.8176C6.04624 21.4111 4.73315 20.4729 4.96398 19.2343L5.91955 14.107C5.9498 13.9447 5.89558 13.7775 5.77402 13.6628L1.96851 10.0735C1.05084 9.20802 1.55704 7.67597 2.80194 7.51292L8.00602 6.83133C8.17353 6.80939 8.31717 6.70488 8.38893 6.55545L10.6503 1.8468Z" fill="currentColor"/>
</svg>
