<svg width="24" height="24" viewBox="0 0 24 24" fill="none"
    xmlns="http://www.w3.org/2000/svg">
    <path fill-rule="evenodd" clip-rule="evenodd" d="M3 5C3 3.89544 3.89544 3 5 3H8.38197C9.13951 3 9.83203 3.428 10.1708 4.10557C10.1708 4.10556 10.1708 4.10557 10.1708 4.10557L11.5721 6.90811C11.9572 7.67814 11.8061 8.60806 11.1974 9.21672L10.6878 9.72637C11.4856 11.4204 12.5796 12.5144 14.2736 13.3122L14.7832 12.8026C15.3919 12.1939 16.3218 12.0428 17.0919 12.4279L19.8944 13.8292C19.8944 13.8292 19.8944 13.8292 19.8944 13.8292C20.572 14.168 21 14.8605 21 15.618V19C21 20.1046 20.1046 21 19 21H18C9.71572 21 3 14.2843 3 6V5ZM8.38196 5H5V6C5 13.1797 10.8203 19 18 19H19V15.618L16.1975 14.2167L15.6734 14.7408C15.1167 15.2975 14.2449 15.5047 13.4725 15.1454C11.3127 14.1405 9.85956 12.6874 8.85466 10.5277C8.49529 9.75517 8.70244 8.88337 9.25912 8.32667C9.25911 8.32668 9.25913 8.32666 9.25912 8.32667L9.78316 7.80258L8.38196 5Z" fill="currentColor"/>
</svg>
