<svg width="24" height="24" viewBox="0 0 24 24" fill="none" xmlns="http://www.w3.org/2000/svg">
<path fill-rule="evenodd" clip-rule="evenodd" d="M21.9691 16.9881L13.7203 2.9846C12.9471 1.67182 11.047 1.67182 10.2738 2.9846L2.02498 16.9881C1.23905 18.3223 2.20386 20 3.74825 20H20.2459C21.7903 20 22.755 18.3222 21.9691 16.9881ZM11.997 3.99965L3.75008 18H20.244L11.997 3.99965Z" fill="currentColor"/>
<path d="M12 13.75C11.3096 13.75 10.75 14.3096 10.75 15C10.75 15.6904 11.3096 16.25 12 16.25C12.6904 16.25 13.25 15.6904 13.25 15C13.25 14.3096 12.6904 13.75 12 13.75Z" fill="currentColor"/>
<path d="M12.9971 10.0156C12.9971 9.46331 12.5494 9.0156 11.9971 9.0156C11.4448 9.0156 10.9971 9.46331 10.9971 10.0156V12.0121C10.9971 12.5644 11.4448 13.0121 11.9971 13.0121C12.5494 13.0121 12.9971 12.5644 12.9971 12.0121V10.0156Z" fill="currentColor"/>
</svg>
