<svg width="24" height="24" viewBox="0 0 24 24" fill="none"
    xmlns="http://www.w3.org/2000/svg">
    <path fill-rule="evenodd" clip-rule="evenodd" d="M4.73992 8.6352C4.26506 9.65805 4 10.7981 4 12C4 13.8488 4.62711 15.551 5.68021 16.9057L8.47727 14.1087C6.99489 12.5171 5.82474 10.8846 5.10602 9.4472C4.96964 9.17445 4.84662 8.90299 4.73992 8.6352ZM6.34359 6.34314L6.34355 6.34318C6.34292 6.34381 6.3399 6.34681 6.33494 6.35611C6.32947 6.36639 6.31982 6.38788 6.31082 6.42552C6.29194 6.50442 6.27964 6.63914 6.30394 6.84417C6.35341 7.26163 6.53845 7.83992 6.89488 8.55278C7.50311 9.76925 8.5343 11.2272 9.89244 12.6935L12.694 9.89195C11.2277 8.53383 9.76973 7.50265 8.55326 6.89442C7.8404 6.53799 7.26211 6.35295 6.84464 6.30348C6.6396 6.27918 6.50489 6.29148 6.42598 6.31036C6.38834 6.31936 6.36685 6.32901 6.35657 6.33449C6.34727 6.33944 6.34427 6.34246 6.34364 6.34309L6.3436 6.34314L6.34359 6.34314ZM14.1091 8.47678C12.5176 6.99442 10.8851 5.82427 9.44769 5.10556C9.17502 4.96923 8.90366 4.84624 8.63595 4.73957C9.65861 4.26493 10.7984 4 12 4C13.8488 4 15.551 4.6271 16.9057 5.6802L14.1091 8.47678ZM14.1082 11.3062L11.3066 14.1077C12.773 15.466 14.2311 16.4973 15.4477 17.1056C16.1605 17.462 16.7388 17.647 17.1563 17.6965C17.3613 17.7208 17.496 17.7085 17.5749 17.6896C17.6126 17.6806 17.6341 17.671 17.6444 17.6655C17.6492 17.6629 17.6524 17.6608 17.6544 17.6594C17.6562 17.6576 17.658 17.6557 17.6598 17.6539C17.6613 17.6519 17.6633 17.6488 17.666 17.6439C17.6714 17.6336 17.6811 17.6121 17.6901 17.5745C17.709 17.4956 17.7213 17.3609 17.697 17.1558C17.6475 16.7384 17.4625 16.1601 17.106 15.4472C16.4978 14.2307 15.4665 12.7726 14.1082 11.3062ZM19.2606 15.3638C19.154 15.0963 19.0311 14.8252 18.8949 14.5528C18.1761 13.1153 17.0059 11.4827 15.5234 9.89099L18.3199 7.09443C19.3729 8.4491 20 10.1513 20 12C20 13.2015 19.7351 14.3412 19.2606 15.3638ZM19.0423 19.0997C19.0521 19.0903 19.0618 19.0808 19.0715 19.0711L19.0715 19.0711C19.0813 19.0614 19.0909 19.0516 19.1003 19.0417C20.8928 17.2344 22 14.7465 22 12C22 9.59876 21.1537 7.3952 19.743 5.67133L20.4854 4.92894C20.8759 4.53841 20.8759 3.90525 20.4854 3.51472C20.0949 3.1242 19.4617 3.1242 19.0712 3.51472L18.3288 4.25711C16.6049 2.84639 14.4013 2 12 2C6.47716 2 2 6.47716 2 12C2 14.4013 2.84639 16.605 4.25712 18.3288L3.51486 19.0711C3.12434 19.4616 3.12434 20.0948 3.51486 20.4853C3.90539 20.8758 4.53855 20.8758 4.92908 20.4853L5.67135 19.743C7.39521 21.1537 9.59877 22 12 22C14.7468 22 17.235 20.8925 19.0423 19.0997ZM15.3645 19.2602C15.097 19.1536 14.8257 19.0307 14.5532 18.8944C13.1157 18.1756 11.4832 17.0054 9.89148 15.5229L7.09444 18.3199C8.44911 19.373 10.1513 20 12 20C13.2018 20 14.3417 19.735 15.3645 19.2602Z" fill="currentColor"/>
</svg>
