<svg width="20" height="20" viewBox="0 0 20 20" fill="none" xmlns="http://www.w3.org/2000/svg">
<path fill-rule="evenodd" clip-rule="evenodd" d="M4.10743 15.8926C4.43287 16.218 4.9605 16.218 5.28594 15.8926L15.8925 5.28595C16.218 4.96052 16.218 4.43288 15.8925 4.10744C15.5671 3.78201 15.0395 3.78201 14.714 4.10744L4.10743 14.714C3.78199 15.0395 3.78199 15.5671 4.10743 15.8926Z" fill="#FAFAFA"/>
<path fill-rule="evenodd" clip-rule="evenodd" d="M4.10744 4.1074C3.78201 4.43284 3.78201 4.96047 4.10744 5.28591L14.714 15.8925C15.0395 16.2179 15.5671 16.2179 15.8926 15.8925C16.218 15.5671 16.218 15.0394 15.8926 14.714L5.28596 4.1074C4.96052 3.78196 4.43288 3.78196 4.10744 4.1074Z" fill="#FAFAFA"/>
</svg>
